<svg id="Capa_1" enable-background="new 0 0 512 512" height="512" viewBox="0 0 512 512" width="512" xmlns="http://www.w3.org/2000/svg" xmlns:xlink="http://www.w3.org/1999/xlink"><linearGradient id="SVGID_1_" gradientUnits="userSpaceOnUse" x1="256" x2="256" y1="512" y2="0"><stop offset="0" stop-color="#ffc2cc"/><stop offset="1" stop-color="#fff2f4"/></linearGradient><linearGradient id="SVGID_2_" gradientUnits="userSpaceOnUse" x1="107.602" x2="386.609" y1="404.398" y2="125.391"><stop offset="0" stop-color="#ffa68d"/><stop offset="1" stop-color="#fd3a84"/></linearGradient><g><g><circle cx="256" cy="256" fill="url(#SVGID_1_)" r="256"/></g><g><g><g><path d="m399.22 138.002-25.222-25.222c-10.373-10.373-27.234-10.373-37.608 0l-18.878 18.878 62.83 62.83 18.878-18.878c10.373-10.364 10.373-27.243 0-37.608zm-293.847 257.566c-.937 3.131-.078 6.522 2.229 8.83 1.691 1.691 3.955 2.602 6.28 2.602.85 0 1.709-.121 2.55-.373l66.705-19.977-57.787-57.787zm30.014-81.786 62.83 62.83 169.565-169.565-62.83-62.83zm182.138-119.307c3.469 3.469 3.469 9.09 0 12.559l-87.922 87.922c-1.735 1.735-4.007 2.602-6.28 2.602-2.272 0-4.545-.867-6.28-2.602-3.469-3.469-3.469-9.09 0-12.559l87.923-87.923c3.469-3.468 9.09-3.468 12.559.001z" fill="url(#SVGID_2_)"/></g></g></g></g></svg>