<?xml version="1.0" encoding="UTF-8"?>
<svg xmlns="http://www.w3.org/2000/svg" xmlns:xlink="http://www.w3.org/1999/xlink" id="Layer_1" data-name="Layer 1" viewBox="0 0 512 512" width="512" height="512"><defs><linearGradient id="linear-gradient" x1="46" y1="456" x2="46" y2="127.391" gradientUnits="userSpaceOnUse"><stop offset="0.322" stop-color="#a163f5"/><stop offset="0.466" stop-color="#b074ee"/><stop offset="0.752" stop-color="#d8a1dd"/><stop offset="0.898" stop-color="#efbad3"/></linearGradient><linearGradient id="linear-gradient-3" x1="252.985" y1="456" x2="252.985" y2="127.391" xlink:href="#linear-gradient"/><linearGradient id="linear-gradient-4" x1="97.03" y1="456" x2="97.03" y2="127.391" xlink:href="#linear-gradient"/><linearGradient id="linear-gradient-6" x1="215.341" y1="456" x2="215.341" y2="127.391" xlink:href="#linear-gradient"/><linearGradient id="linear-gradient-7" x1="190.445" y1="456" x2="190.445" y2="127.391" xlink:href="#linear-gradient"/><linearGradient id="linear-gradient-8" x1="255.89" y1="456" x2="255.89" y2="127.391" xlink:href="#linear-gradient"/></defs><path d="M46,111.425a6,6,0,0,0-6,6V239.181a6,6,0,1,0,12,0V117.425A6,6,0,0,0,46,111.425Z" style="fill:url(#linear-gradient)"/><path d="M46,87.857a6,6,0,0,0-6,6v4.884a6,6,0,0,0,12,0V93.857A6,6,0,0,0,46,87.857Z" style="fill:url(#linear-gradient)"/><path d="M166.319,320a6,6,0,0,0,6,6H333.652a6,6,0,1,0,0-12H172.319A6,6,0,0,0,166.319,320Z" style="fill:url(#linear-gradient-3)"/><path d="M107.475,319.536,92.813,333.528l-6.133-6.122A6,6,0,1,0,78.2,335.9l10.278,10.259a6,6,0,0,0,8.381.094l18.9-18.036a6,6,0,1,0-8.285-8.68Z" style="fill:url(#linear-gradient-4)"/><path d="M107.475,394.684,92.813,408.676l-6.133-6.121a6,6,0,1,0-8.477,8.493l10.278,10.259a6,6,0,0,0,8.381.093l18.9-18.035a6,6,0,0,0-8.285-8.681Z" style="fill:url(#linear-gradient-4)"/><path d="M258.363,335H172.319a6,6,0,1,0,0,12h86.044a6,6,0,1,0,0-12Z" style="fill:url(#linear-gradient-6)"/><path d="M91.979,285H288.8a20.935,20.935,0,0,0,5.2-41.286V220.435c0-45.775-36.261-83.315-81.577-85.954a22.658,22.658,0,0,0-43.9,0C123.2,137.12,87,174.66,87,220.435v22.983c-9,1.953-16.145,10.6-16.145,20.582A21.135,21.135,0,0,0,91.979,285ZM213,146.57c38,2.938,69,34.932,69,73.865V243H223V231.821a14.033,14.033,0,0,0-10-13.454Zm-33-6.725a10.5,10.5,0,0,1,21,0V218H180Zm-10,91.976c0-1.219,1.221-1.821,2.461-1.821h35.86c1.24,0,2.679.6,2.679,1.821V243H170ZM91.074,255H101a6,6,0,0,0,0-12H99V220.435c0-38.933,31-70.927,69-73.865v71.8a14.033,14.033,0,0,0-10,13.454V243H143a6,6,0,0,0,0,12H287.9c5.663,0,9.934,3.892,9.934,9a9.039,9.039,0,0,1-9.029,9H91.979a9.039,9.039,0,0,1-9.029-9C82.95,258.872,87.239,255,91.074,255Z" style="fill:url(#linear-gradient-7)"/><path d="M447.422,273.736,380,317.886V75.241A38.194,38.194,0,0,0,341.868,37H300V17a6,6,0,0,0-12,0V37H233V17a6,6,0,0,0-12,0V37H166V17a6,6,0,0,0-12,0V37H99V17a6,6,0,0,0-12,0V37H51.468A38.483,38.483,0,0,0,13,75.241V462.793A38.453,38.453,0,0,0,51.468,501h290.4A38.164,38.164,0,0,0,380,462.793V397.01l103.79-67.988a32.991,32.991,0,0,0,14.863-24.865,32.576,32.576,0,0,0-3.208-17.184A33.206,33.206,0,0,0,447.422,273.736ZM294.355,67.229A11.832,11.832,0,1,1,282.49,79.061,11.863,11.863,0,0,1,294.355,67.229Zm-67.247,0a11.832,11.832,0,1,1-11.866,11.832A11.862,11.862,0,0,1,227.108,67.229Zm-67.248,0A11.832,11.832,0,1,1,148,79.061,11.862,11.862,0,0,1,159.86,67.229Zm-67.248,0A11.832,11.832,0,1,1,80.747,79.061,11.863,11.863,0,0,1,92.612,67.229ZM368,462.793A26.151,26.151,0,0,1,341.868,489H51.468A26.44,26.44,0,0,1,25,462.793V75.241A26.469,26.469,0,0,1,51.468,49H87v6.993A23.26,23.26,0,0,0,68.941,79.061a23.89,23.89,0,0,0,47.779,0A24.052,24.052,0,0,0,99,55.993V49h55v6.993a24.244,24.244,0,0,0-17.935,23.068,23.874,23.874,0,0,0,47.748,0A24.135,24.135,0,0,0,166,55.993V49h55v6.993a23.837,23.837,0,0,0,6.081,46.9,23.841,23.841,0,0,0,23.825-23.832A24.218,24.218,0,0,0,233,55.993V49h55v6.993a23.856,23.856,0,0,0,6.267,46.9A23.762,23.762,0,0,0,318,79.061a23.208,23.208,0,0,0-18-23.068V49h41.868A26.181,26.181,0,0,1,368,75.241v250.51l-26.188,17.211A6.014,6.014,0,0,0,348.441,353l98.343-64.457,8.3,12.6L291.756,408.2l-8.295-12.6,29.87-19.579a6,6,0,1,0-6.578-10.036l-34.886,22.867c-.068.044-.127.1-.194.146H172.319a6,6,0,1,0,0,12h92.259l-5.3,10H172.319a6,6,0,1,0,0,12h80.594l-7.819,14.746a6,6,0,0,0,5.3,8.811l.113,0L305,445.128v-.008a6.116,6.116,0,0,0,3.11-.972L368,404.876Zm-74.013-29.379-33.478.876L275.7,405.637Zm12.665-2.585-8.3-12.6,163.331-107.06,8.3,12.6ZM486.766,302.646a21.033,21.033,0,0,1-6.89,14.327l-22.9-34.792a21.175,21.175,0,0,1,28.155,10.966A20.5,20.5,0,0,1,486.766,302.646Z" style="fill:url(#linear-gradient-8)"/></svg>
